<svg id="logo" xmlns="http://www.w3.org/2000/svg" width="110.031" height="73.837" viewBox="0 0 110.031 73.837">
  <path id="Path_1" data-name="Path 1" d="M110.031,62.244c0-13.393-24.631-24.25-55.016-24.25S0,48.851,0,62.244H4.343c0-1.923.866-4.089,3.114-6.432a32.789,32.789,0,0,1,10.408-6.741c9.285-4.093,22.416-6.734,37.15-6.734s27.865,2.641,37.15,6.734a32.785,32.785,0,0,1,10.408,6.741c2.248,2.343,3.114,4.51,3.114,6.432Z" transform="translate(0 -19.896)" fill="#fff" fill-rule="evenodd"/>
  <circle id="Ellipse_1" data-name="Ellipse 1" cx="36.918" cy="36.918" r="36.918" transform="translate(18.097 0)" fill="#8263ea"/>
  <path id="Path_2" data-name="Path 2" d="M110.031,88.9c0,13.393-24.631,24.25-55.016,24.25S0,102.3,0,88.9H4.343c0,1.923.866,4.089,3.114,6.432a32.786,32.786,0,0,0,10.408,6.741c9.285,4.093,22.416,6.734,37.15,6.734s27.865-2.641,37.15-6.734a32.783,32.783,0,0,0,10.408-6.741c2.248-2.343,3.114-4.509,3.114-6.432Z" transform="translate(0 -46.557)" fill="#fff" fill-rule="evenodd"/>
</svg>
